<svg xmlns="http://www.w3.org/2000/svg" width="125" height="50" viewBox="0 0 125 50">
  <g fill="none" fill-rule="evenodd">
    <path fill="#0A0B09" d="M121.721847,49.5706767 C120.886449,49.5706767 120.125751,49.4949248 119.441441,49.343985 C118.756569,49.1930451 118.158596,48.9315789 117.648461,48.5593985 C117.137575,48.1879699 116.743056,47.6823308 116.464715,47.0426692 C116.186186,46.4035714 116.046734,45.6077068 116.046734,44.6541353 L116.046734,35.0654135 L113.679242,35.0654135 L113.679242,31.5088346 L116.046734,31.5088346 L116.046734,26.843797 L121.582583,26.843797 L121.582583,31.5088346 L124.820383,31.5088346 L124.820383,35.0654135 L121.582583,35.0654135 L121.582583,43.4338346 C121.582583,44.131203 121.7622,44.5964286 122.122185,44.8285714 C122.481794,45.0612782 122.963213,45.1772556 123.567192,45.1772556 C123.82226,45.1772556 124.065878,45.1718045 124.298236,45.1597744 C124.53003,45.1483083 124.704017,45.1424812 124.820383,45.1424812 L124.820383,49.2917293 C124.564752,49.3614662 124.176426,49.425188 123.654279,49.4834586 C123.131757,49.5411654 122.4878,49.5706767 121.721847,49.5706767 Z M105.080143,49.9193609 C103.640766,49.9193609 102.341029,49.6806391 101.180743,49.2045113 C100.019895,48.7283835 99.0275901,48.0657895 98.2040165,47.2171053 C97.3796922,46.368797 96.7417417,45.368985 96.289039,44.2184211 C95.836524,43.0676692 95.6101727,41.8184211 95.6101727,40.4699248 C95.6101727,39.1221805 95.8303303,37.8723684 96.2715841,36.7216165 C96.7122748,35.5710526 97.3391517,34.5718045 98.1518393,33.7229323 C98.963964,32.8746241 99.9446321,32.212218 101.093656,31.7355263 C102.24268,31.2592105 103.524962,31.0206767 104.940878,31.0206767 C106.147335,31.0206767 107.244182,31.1896617 108.231044,31.5263158 C109.217342,31.8635338 110.070383,32.3342105 110.789977,32.9383459 C111.509197,33.5432331 112.089527,34.2635338 112.530781,35.100188 C112.971471,35.9370301 113.261824,36.8556391 113.401276,37.8548872 L107.93506,37.8548872 C107.748874,37.0413534 107.418356,36.3964286 106.942943,35.9197368 C106.466779,35.4434211 105.822635,35.2048872 105.010511,35.2048872 C103.78003,35.2048872 102.863363,35.6755639 102.259947,36.6171053 C101.656344,37.5584586 101.35473,38.8432331 101.35473,40.4699248 C101.35473,42.0738722 101.656344,43.3411654 102.259947,44.2706767 C102.863363,45.2007519 103.78003,45.6654135 105.010511,45.6654135 C106.820946,45.6654135 107.853416,44.6426692 108.109047,42.5969925 L113.540541,42.5969925 C113.493619,43.6201128 113.267455,44.5791353 112.861486,45.4736842 C112.455143,46.368797 111.886637,47.1473684 111.155593,47.8097744 C110.424362,48.4721805 109.542042,48.9898496 108.509384,49.3614662 C107.476351,49.7328947 106.333333,49.9193609 105.080143,49.9193609 Z M89.2736486,38.5174812 C89.1572823,37.4484962 88.7976727,36.5996241 88.1942568,35.9719925 C87.5904655,35.3443609 86.824512,35.0304511 85.8963964,35.0304511 C84.8051802,35.0304511 83.9695946,35.3443609 83.3896396,35.9719925 C82.8093093,36.5996241 82.4262387,37.4484962 82.2408033,38.5174812 L89.2736486,38.5174812 Z M86.1402027,49.8845865 C84.6779279,49.8845865 83.3549174,49.6458647 82.1711712,49.1697368 C80.9872372,48.6934211 79.9891141,48.031015 79.1769895,47.1821429 C78.3643018,46.3340226 77.7374249,45.3287594 77.2967342,44.1659774 C76.8556682,43.0039474 76.6353228,41.7486842 76.6353228,40.4003759 C76.6353228,39.075188 76.8556682,37.837406 77.2967342,36.6868421 C77.7374249,35.5360902 78.3643018,34.5368421 79.1769895,33.6881579 C79.9891141,32.8398496 80.952515,32.1774436 82.0666291,31.7005639 C83.1807432,31.2244361 84.4221096,30.9859023 85.792042,30.9859023 C87.0683183,30.9859023 88.2117117,31.1834586 89.2214715,31.5785714 C90.2308559,31.9740602 91.1188063,32.5199248 91.8847598,33.2172932 C92.9521396,34.193797 93.7475601,35.4315789 94.2697072,36.9308271 C94.7918544,38.4302632 95.0411036,40.0864662 95.0182057,41.8996241 L82.2060811,41.8996241 C82.3915165,43.1086466 82.8093093,44.0614662 83.4592718,44.7588346 C84.1088589,45.456203 85.0260886,45.8048872 86.2098348,45.8048872 C86.9523273,45.8048872 87.5675676,45.6479323 88.0549925,45.3342105 C88.5424174,45.0203008 88.913476,44.5843985 89.1691066,44.0266917 L94.7047673,44.0266917 C94.5187688,44.8406015 94.1707958,45.6131579 93.660473,46.3453008 C93.1495871,47.0776316 92.4994369,47.7112782 91.7105856,48.2456767 C90.96753,48.7806391 90.1379505,49.1870301 89.2214715,49.4661654 C88.3042417,49.7449248 87.277027,49.8845865 86.1402027,49.8845865 Z M58.2875375,31.5088346 L63.7537538,31.5088346 L63.7537538,33.9496241 L63.8581081,33.9496241 C64.5311562,32.9733083 65.3029279,32.2357143 66.1734234,31.7355263 C67.0437312,31.2359023 68.1058559,30.9859023 69.3590465,30.9859023 C70.3340841,30.9859023 71.2042042,31.1546992 71.9703453,31.4913534 C72.7362988,31.8287594 73.3858859,32.2934211 73.920045,32.8860902 C74.4536411,33.4789474 74.859985,34.1881579 75.1385135,35.0131579 C75.4172297,35.8385338 75.5563063,36.7511278 75.5563063,37.750188 L75.5563063,49.3614662 L69.8813814,49.3614662 L69.8813814,38.9009398 C69.8813814,37.9481203 69.649024,37.181015 69.1850601,36.5996241 C68.7203453,36.018797 68.024024,35.7280075 67.0960961,35.7280075 C66.1441441,35.7280075 65.3841967,36.0766917 64.815503,36.7740602 C64.2466216,37.4714286 63.9624625,38.3778195 63.9624625,39.493609 L63.9624625,49.3614662 L58.2875375,49.3614662 L58.2875375,31.5088346 Z M39.1390766,31.5088346 L44.6052928,31.5088346 L44.6052928,33.9496241 L44.7094595,33.9496241 C45.3825075,32.9733083 46.154467,32.2357143 47.0247748,31.7355263 C47.8952703,31.2359023 48.9572072,30.9859023 50.2105856,30.9859023 C51.1854354,30.9859023 52.0557432,31.1546992 52.8216967,31.4913534 C53.5876502,31.8287594 54.2372372,32.2934211 54.7715841,32.8860902 C55.3051802,33.4789474 55.711524,34.1881579 55.9900526,35.0131579 C56.2685811,35.8385338 56.4078453,36.7511278 56.4078453,37.750188 L56.4078453,49.3614662 L50.7327327,49.3614662 L50.7327327,38.9009398 C50.7327327,37.9481203 50.5005631,37.181015 50.0364114,36.5996241 C49.5718844,36.018797 48.8755631,35.7280075 47.9474474,35.7280075 C46.9954955,35.7280075 46.235548,36.0766917 45.667042,36.7740602 C45.0981607,37.4714286 44.8140015,38.3778195 44.8140015,39.493609 L44.8140015,49.3614662 L39.1390766,49.3614662 L39.1390766,31.5088346 Z M28.381006,45.8746241 C29.6343844,45.8746241 30.579955,45.381015 31.2186562,44.3926692 C31.8567943,43.4048872 32.1760511,42.0973684 32.1760511,40.4699248 C32.1760511,38.8432331 31.8567943,37.5296992 31.2186562,36.5298872 C30.579955,35.5306391 29.6343844,35.0304511 28.381006,35.0304511 C27.1278153,35.0304511 26.1876877,35.5306391 25.5609985,36.5298872 C24.9343093,37.5296992 24.6208709,38.8432331 24.6208709,40.4699248 C24.6208709,42.0973684 24.9343093,43.4048872 25.5609985,44.3926692 C26.1876877,45.381015 27.1278153,45.8746241 28.381006,45.8746241 Z M28.4159159,49.9193609 C26.976539,49.9193609 25.6709835,49.6806391 24.4990616,49.2045113 C23.3267643,48.7283835 22.3230105,48.0657895 21.4876126,47.2171053 C20.652027,46.368797 20.0078829,45.368985 19.5551802,44.2184211 C19.1026652,43.0676692 18.8763138,41.8184211 18.8763138,40.4699248 C18.8763138,39.1221805 19.1026652,37.8723684 19.5551802,36.7216165 C20.0078829,35.5710526 20.652027,34.5718045 21.4876126,33.7229323 C22.3230105,32.8746241 23.3267643,32.212218 24.4990616,31.7355263 C25.6709835,31.2592105 26.976539,31.0206767 28.4159159,31.0206767 C29.8547297,31.0206767 31.160473,31.2592105 32.3327703,31.7355263 C33.5045045,32.212218 34.5028153,32.8746241 35.326952,33.7229323 C36.1505255,34.5718045 36.7892267,35.5710526 37.2417417,36.7216165 C37.6942568,37.8723684 37.9207958,39.1221805 37.9207958,40.4699248 C37.9207958,41.8184211 37.6942568,43.0676692 37.2417417,44.2184211 C36.7892267,45.368985 36.1505255,46.368797 35.326952,47.2171053 C34.5028153,48.0657895 33.5045045,48.7283835 32.3327703,49.2045113 C31.160473,49.6806391 29.8547297,49.9193609 28.4159159,49.9193609 Z M9.92886637,49.9193609 C8.48948949,49.9193609 7.18975225,49.6806391 6.02965465,49.2045113 C4.86861862,48.7283835 3.87631381,48.0657895 3.05274024,47.2171053 C2.2286036,46.368797 1.59046547,45.368985 1.13776276,44.2184211 C0.685247748,43.0676692 0.458896396,41.8184211 0.458896396,40.4699248 C0.458896396,39.1221805 0.679241742,37.8723684 1.12030781,36.7216165 C1.5609985,35.5710526 2.18787538,34.5718045 3.00056306,33.7229323 C3.81268769,32.8746241 4.79354354,32.212218 5.94256757,31.7355263 C7.0914039,31.2592105 8.37368619,31.0206767 9.7896021,31.0206767 C10.9960586,31.0206767 12.0929054,31.1896617 13.0797673,31.5263158 C14.0660661,31.8635338 14.9191066,32.3342105 15.6387012,32.9383459 C16.3579204,33.5432331 16.9384384,34.2635338 17.3795045,35.100188 C17.8201952,35.9370301 18.1107357,36.8556391 18.25,37.8548872 L12.7837838,37.8548872 C12.5977853,37.0413534 12.2670796,36.3964286 11.7916667,35.9197368 C11.3156907,35.4434211 10.6713589,35.2048872 9.85923423,35.2048872 C8.62875375,35.2048872 7.71208709,35.6755639 7.10885886,36.6171053 C6.50506757,37.5584586 6.20345345,38.8432331 6.20345345,40.4699248 C6.20345345,42.0738722 6.50506757,43.3411654 7.10885886,44.2706767 C7.71208709,45.2007519 8.62875375,45.6654135 9.85923423,45.6654135 C11.6696697,45.6654135 12.7021396,44.6426692 12.957958,42.5969925 L18.3892643,42.5969925 C18.3423423,43.6201128 18.1161787,44.5791353 17.7102102,45.4736842 C17.3038664,46.368797 16.735548,47.1473684 16.0043168,47.8097744 C15.2732733,48.4721805 14.3907658,48.9898496 13.3581081,49.3614662 C12.3250751,49.7328947 11.1822447,49.9193609 9.92886637,49.9193609 Z M49.2796547,7.49116541 L54.7458709,7.49116541 L54.7458709,2.64417293 L49.2796547,2.64417293 L49.2796547,7.49116541 Z M6.28059309,26.843797 L11.9904279,26.843797 L18.1882508,8.99097744 L12.7220345,8.99097744 L9.24024024,20.462782 L9.17060811,20.462782 L5.68881381,8.99097744 L0.0833333333,8.99097744 L6.28059309,26.843797 Z M26.3352102,12.3729323 C28.25,12.3729323 29.5730105,13.8030075 29.7819069,15.8949248 L22.5052553,15.8949248 C22.9232357,13.7678571 24.0718844,12.3729323 26.3352102,12.3729323 Z M26.6137387,23.4270677 C24.2113363,23.4270677 22.7492492,21.8575188 22.4703453,19.4520677 L35.3179429,19.4520677 C35.3528529,15.6159774 34.3429054,12.5473684 32.2192192,10.6296992 C30.7222222,9.23477444 28.7374249,8.46766917 26.2306682,8.46766917 C20.8691817,8.46766917 17.1433934,12.5473684 17.1433934,17.8825188 C17.1433934,23.2522556 20.6948198,27.3669173 26.5790165,27.3669173 C28.8074324,27.3669173 30.582958,26.7740602 32.0452327,25.762782 C33.6120495,24.6823308 34.7261637,23.112782 35.0392267,21.543985 L29.8170045,21.543985 C29.2948574,22.7293233 28.2152778,23.4270677 26.6137387,23.4270677 Z M36.6062312,26.843797 L42.0375375,26.843797 L42.0375375,18.65 C42.0375375,14.918609 44.2659535,13.2796992 47.6781156,13.7330827 L47.78247,13.7330827 L47.78247,9.02593985 C47.5037538,8.9212406 47.1906907,8.8862782 46.6685435,8.8862782 C44.5446697,8.8862782 43.1171171,9.86240602 41.8982733,11.9546992 L41.7937312,11.9546992 L41.7937312,8.99097744 L36.6062312,8.99097744 L36.6062312,26.843797 Z M49.2796547,26.843797 L54.7458709,26.843797 L54.7458709,8.99097744 L49.2796547,8.99097744 L49.2796547,26.843797 Z M56.2438063,26.843797 L71.4938063,26.843797 L71.4938063,22.5552632 L62.8594219,22.5552632 L62.8594219,22.450188 L71.1109234,13.175 L71.1109234,8.99097744 L56.2438063,8.99097744 L56.2438063,13.2796992 L64.6000375,13.2796992 L64.6000375,13.3843985 L56.2438063,22.7293233 L56.2438063,26.843797 Z M81.1381381,23.3919173 C78.5613739,23.3919173 77.2038288,21.2302632 77.2038288,17.9522556 C77.2038288,14.6394737 78.5613739,12.512406 81.1381381,12.512406 C83.714527,12.512406 85.1420796,14.6394737 85.1420796,17.9522556 C85.1420796,21.2302632 83.714527,23.3919173 81.1381381,23.3919173 Z M81.173048,8.50263158 C75.4975601,8.50263158 71.7028904,12.5823308 71.7028904,17.9522556 C71.7028904,23.287594 75.4975601,27.4020677 81.173048,27.4020677 C86.8481607,27.4020677 90.6432057,23.287594 90.6432057,17.9522556 C90.6432057,12.5823308 86.8481607,8.50263158 81.173048,8.50263158 Z M91.8271396,26.843797 L97.2586336,26.843797 L97.2586336,16.906391 C97.2586336,14.6394737 98.5816441,13.0355263 100.531156,13.0355263 C102.411411,13.0355263 103.386261,14.3609023 103.386261,16.243797 L103.386261,26.843797 L108.817755,26.843797 L108.817755,15.1979323 C108.817755,11.2573308 106.450263,8.46766917 102.620308,8.46766917 C100.183371,8.46766917 98.4771021,9.51390977 97.1890015,11.4317669 L97.0844595,11.4317669 L97.0844595,8.99097744 L91.8271396,8.99097744 L91.8271396,26.843797 Z"/>
    <polyline fill="#C22E2B" points="120.739 .029 114.016 14.471 111.474 8.991 108.727 8.991 112.9 17.952 115.12 17.952 123.465 .029 120.739 .029"/>
  </g>
</svg>
